# xmcd CD database file
#
# Track frame offsets:
#	150
#	17654
#	32738
#	49449
#	64494
#	83344
#	100239
#	116025
#	135136
#	151858
#	169587
#	186270
#	205328
#	228230
#	249217
#
# Disc length: 3513 seconds
#
# Revision: 0
# Processed by: cddbd v1.5PL3 Copyright (c) Steve Scherf et al.
# Submitted via: freeDB plugin v1.0
#
DISCID=ba0db70f
DTITLE=アーティスト情報なし - アルバム情報なし (2003/12/14 22:11:18)
DYEAR=1900
DGENRE=Soundtrack
TTITLE0=トラック 1
TTITLE1=トラック 2
TTITLE2=トラック 3
TTITLE3=トラック 4
TTITLE4=トラック 5
TTITLE5=トラック 6
TTITLE6=トラック 7
TTITLE7=トラック 8
TTITLE8=トラック 9
TTITLE9=トラック 10
TTITLE10=トラック 11
TTITLE11=トラック 12
TTITLE12=トラック 13
TTITLE13=トラック 14
TTITLE14=トラック 15
EXTD=
EXTT0=
EXTT1=
EXTT2=
EXTT3=
EXTT4=
EXTT5=
EXTT6=
EXTT7=
EXTT8=
EXTT9=
EXTT10=
EXTT11=
EXTT12=
EXTT13=
EXTT14=
PLAYORDER=
